<svg xmlns="http://www.w3.org/2000/svg" version="1.1" xmlns:xlink="http://www.w3.org/1999/xlink" xmlns:svgjs="http://svgjs.dev/svgjs" width="1500" height="428" viewBox="0 0 1500 428"><g transform="matrix(1,0,0,1,-0.9090909090909918,-0.7127175960653744)"><svg viewBox="0 0 396 113" data-background-color="#ffffff" preserveAspectRatio="xMidYMid meet" height="428" width="1500" xmlns="http://www.w3.org/2000/svg" xmlns:xlink="http://www.w3.org/1999/xlink"><g id="tight-bounds" transform="matrix(1,0,0,1,0.2400000000000091,0.18817076718548265)"><svg viewBox="0 0 395.52 112.62365846562906" height="112.62365846562906" width="395.52"><g><svg viewBox="0 0 588.9478728901578 167.70192174969623" height="112.62365846562906" width="395.52"><g transform="matrix(1,0,0,1,193.42787289015783,23.177327825030382)"><svg viewBox="0 0 395.5199999999999 121.34726609963546" height="121.34726609963546" width="395.5199999999999"><g id="textblocktransform"><svg viewBox="0 0 395.5199999999999 121.34726609963546" height="121.34726609963546" width="395.5199999999999" id="textblock"><g><svg viewBox="0 0 395.5199999999999 121.34726609963546" height="121.34726609963546" width="395.5199999999999"><g transform="matrix(1,0,0,1,0,0)"><svg width="395.5199999999999" viewBox="1.7 -39.65 164.58 50.5" height="121.34726609963546" data-palette-color="#ffffff"><path d="M15.8-37.7L21.95-37.05 21.95 0 16.5 0 16.2-3.05Q13.85 0.75 10.15 0.75L10.15 0.75Q6.05 0.75 3.88-2.93 1.7-6.6 1.7-13.2L1.7-13.2Q1.7-17.4 2.83-20.58 3.95-23.75 5.95-25.45 7.95-27.15 10.55-27.15L10.55-27.15Q13.75-27.15 15.8-24.5L15.8-24.5 15.8-37.7ZM11.9-3.9Q13.05-3.9 13.98-4.7 14.9-5.5 15.8-7L15.8-7 15.8-19.85Q14.2-22.55 12.15-22.55L12.15-22.55Q8.1-22.55 8.1-13.25L8.1-13.25Q8.1-8.2 9.1-6.05 10.1-3.9 11.9-3.9L11.9-3.9ZM27.65-26.45L33.8-26.45 33.8 0 27.65 0 27.65-26.45ZM30.7-39.65Q32.35-39.65 33.37-38.6 34.4-37.55 34.4-35.9L34.4-35.9Q34.4-34.3 33.37-33.25 32.35-32.2 30.7-32.2L30.7-32.2Q29.05-32.2 28.02-33.25 27-34.3 27-35.9L27-35.9Q27-37.55 28.02-38.6 29.05-39.65 30.7-39.65L30.7-39.65ZM57.45-29.85L59-25.1Q57.95-24.6 56.47-24.4 55-24.2 52.8-24.2L52.8-24.2Q54.9-23.2 55.92-21.53 56.95-19.85 56.95-17.4L56.95-17.4Q56.95-13.4 54.5-10.95 52.05-8.5 47.85-8.5L47.85-8.5Q46.6-8.5 45.3-8.9L45.3-8.9Q44.4-8.15 44.4-6.85L44.4-6.85Q44.4-5.85 44.95-5.35 45.5-4.85 47-4.85L47-4.85 49.8-4.85Q53.8-4.85 56.15-2.78 58.5-0.7 58.5 2.5L58.5 2.5Q58.5 6.3 55.57 8.58 52.65 10.85 47.25 10.85L47.25 10.85Q41.55 10.85 39.27 8.75 37 6.65 37 2.6L37 2.6 42.45 2.6Q42.45 4.75 43.45 5.65 44.45 6.55 47.3 6.55L47.3 6.55Q50.05 6.55 51.2 5.6 52.35 4.65 52.35 2.9L52.35 2.9Q52.35 1.2 51.4 0.4 50.45-0.4 48.45-0.4L48.45-0.4 46.55-0.4Q42.75-0.4 41-1.75 39.25-3.1 39.25-5.45L39.25-5.45Q39.25-6.8 39.97-8.03 40.7-9.25 41.95-10.2L41.95-10.2Q39.9-11.5 38.95-13.3 38-15.1 38-17.7L38-17.7Q38-22.05 40.6-24.58 43.2-27.1 47.6-27.1L47.6-27.1Q50.85-27.1 52.97-27.8 55.09-28.5 57.45-29.85L57.45-29.85ZM47.6-23Q45.85-23 44.95-21.75 44.05-20.5 44.05-17.8L44.05-17.8Q44.05-15.25 44.95-13.88 45.85-12.5 47.55-12.5L47.55-12.5Q49.3-12.5 50.15-13.73 51-14.95 51-17.85L51-17.85Q51-20.55 50.17-21.78 49.35-23 47.6-23L47.6-23ZM61.74-26.45L67.89-26.45 67.89 0 61.74 0 61.74-26.45ZM64.79-39.65Q66.44-39.65 67.47-38.6 68.49-37.55 68.49-35.9L68.49-35.9Q68.49-34.3 67.47-33.25 66.44-32.2 64.79-32.2L64.79-32.2Q63.14-32.2 62.12-33.25 61.09-34.3 61.09-35.9L61.09-35.9Q61.09-37.55 62.12-38.6 63.14-39.65 64.79-39.65L64.79-39.65ZM95.09-27.1Q96.24-27.1 97.14-26.75L97.14-26.75 96.14-20.85Q95.14-21.1 94.29-21.1L94.29-21.1Q92.39-21.1 91.29-19.45 90.19-17.8 89.59-14.55L89.59-14.55 89.59 0 83.44 0 83.44-26.45 88.79-26.45 89.24-21.85Q91.09-27.1 95.09-27.1L95.09-27.1ZM109.39-27.15Q114.39-27.15 117.16-23.65 119.94-20.15 119.94-13.25L119.94-13.25Q119.94-6.65 117.14-2.95 114.34 0.75 109.39 0.75L109.39 0.75Q104.44 0.75 101.64-2.88 98.84-6.5 98.84-13.25L98.84-13.25Q98.84-19.95 101.64-23.55 104.44-27.15 109.39-27.15L109.39-27.15ZM109.39-22.5Q107.24-22.5 106.23-20.38 105.23-18.25 105.23-13.25L105.23-13.25Q105.23-8.2 106.23-6.08 107.24-3.95 109.39-3.95L109.39-3.95Q111.54-3.95 112.54-6.08 113.54-8.2 113.54-13.25L113.54-13.25Q113.54-18.3 112.54-20.4 111.54-22.5 109.39-22.5L109.39-22.5ZM141.38-6.4Q141.38-5.1 141.73-4.48 142.08-3.85 142.88-3.45L142.88-3.45 141.63 0.65Q139.58 0.4 138.36-0.45 137.13-1.3 136.53-3.05L136.53-3.05Q134.23 0.75 130.08 0.75L130.08 0.75Q126.78 0.75 124.83-1.48 122.88-3.7 122.88-7.4L122.88-7.4Q122.88-11.7 125.56-13.95 128.23-16.2 133.33-16.2L133.33-16.2 135.38-16.2 135.38-18.05Q135.38-20.55 134.51-21.58 133.63-22.6 131.68-22.6L131.68-22.6Q129.33-22.6 125.83-21.3L125.83-21.3 124.43-25.3Q126.43-26.2 128.58-26.68 130.73-27.15 132.68-27.15L132.68-27.15Q141.38-27.15 141.38-18.35L141.38-18.35 141.38-6.4ZM131.73-3.7Q134.13-3.7 135.38-7L135.38-7 135.38-12.55 133.93-12.55Q131.38-12.55 130.21-11.4 129.03-10.25 129.03-7.85L129.03-7.85Q129.03-5.8 129.73-4.75 130.43-3.7 131.73-3.7L131.73-3.7ZM160.13-37.7L166.28-37.05 166.28 0 160.83 0 160.53-3.05Q158.18 0.75 154.48 0.75L154.48 0.75Q150.38 0.75 148.21-2.93 146.03-6.6 146.03-13.2L146.03-13.2Q146.03-17.4 147.16-20.58 148.28-23.75 150.28-25.45 152.28-27.15 154.88-27.15L154.88-27.15Q158.08-27.15 160.13-24.5L160.13-24.5 160.13-37.7ZM156.23-3.9Q157.38-3.9 158.31-4.7 159.23-5.5 160.13-7L160.13-7 160.13-19.85Q158.53-22.55 156.48-22.55L156.48-22.55Q152.43-22.55 152.43-13.25L152.43-13.25Q152.43-8.2 153.43-6.05 154.43-3.9 156.23-3.9L156.23-3.9Z" opacity="1" transform="matrix(1,0,0,1,0,0)" fill="#ffffff" class="wordmark-text-0" data-fill-palette-color="primary" id="text-0"></path></svg></g></svg></g></svg></g></svg></g><g><svg viewBox="0 0 164.7806956984203 167.70192174969623" height="167.70192174969623" width="164.7806956984203"><g><svg xmlns="http://www.w3.org/2000/svg" xmlns:xlink="http://www.w3.org/1999/xlink" version="1.1" x="0" y="0" viewBox="5.212 4.42 89.576 91.164" enable-background="new 0 0 100 100" xml:space="preserve" height="167.70192174969623" width="164.7806956984203" class="icon-icon-0" data-fill-palette-color="accent" id="icon-0"><path d="M94.205 66.997C93.832 66.906 93.271 66.726 92.582 66.588 91.197 66.287 89.25 65.981 86.973 65.845 84.694 65.702 82.086 65.749 79.348 66.005 76.61 66.266 73.75 66.783 70.94 67.488 68.131 68.207 65.37 69.113 62.84 70.191 62.065 70.521 61.32 70.867 60.59 71.216 61.049 70.827 61.508 70.437 61.973 70.019A85 85 0 0 0 65.776 66.374C68.323 63.776 70.823 60.842 73.149 57.776 75.461 54.701 77.608 51.499 79.417 48.342 81.22 45.182 82.729 42.102 83.858 39.336 84.995 36.576 85.762 34.142 86.223 32.378 86.467 31.506 86.592 30.771 86.707 30.292 86.809 29.804 86.844 29.529 86.844 29.529S86.588 29.638 86.147 29.868C85.715 30.108 85.043 30.428 84.268 30.897 82.698 31.818 80.563 33.219 78.213 35.06 75.856 36.895 73.299 39.183 70.746 41.776 68.197 44.371 65.697 47.304 63.363 50.364 61.041 53.434 58.892 56.634 57.084 59.789A78 78 0 0 0 54.99 63.686 95 95 0 0 0 56.445 55.136C56.99 50.788 57.25 46.151 57.254 41.513 57.238 36.876 56.975 32.24 56.426 27.892A94 94 0 0 0 54.184 16.01C53.286 12.532 52.274 9.634 51.45 7.605 50.635 5.58 50 4.42 50 4.42S49.365 5.579 48.551 7.608C47.728 9.637 46.717 12.535 45.817 16.013S44.112 23.548 43.575 27.895C43.024 32.242 42.761 36.879 42.748 41.516 42.75 46.154 43.012 50.791 43.557 55.139 43.929 58.167 44.437 61.041 45.013 63.691A79 79 0 0 0 42.918 59.792C41.108 56.637 38.96 53.437 36.638 50.367 34.306 47.306 31.804 44.373 29.256 41.779 26.702 39.186 24.147 36.899 21.788 35.063 19.438 33.222 17.305 31.821 15.733 30.9 14.959 30.431 14.286 30.111 13.854 29.871 13.411 29.641 13.157 29.532 13.157 29.532S13.193 29.806 13.296 30.295C13.409 30.774 13.536 31.509 13.778 32.381 14.239 34.144 15.008 36.578 16.145 39.339 17.272 42.105 18.782 45.186 20.585 48.345 22.393 51.502 24.538 54.704 26.853 57.779 29.179 60.844 31.678 63.779 34.225 66.377 35.491 67.68 36.784 68.889 38.028 70.022 38.495 70.44 38.953 70.831 39.412 71.219A54 54 0 0 0 37.161 70.194C34.631 69.116 31.872 68.21 29.063 67.491 26.25 66.786 23.391 66.268 20.652 66.008 17.915 65.752 15.309 65.705 13.028 65.848 10.751 65.984 8.803 66.29 7.419 66.591 6.729 66.73 6.169 66.909 5.796 67 5.419 67.104 5.212 67.181 5.212 67.181S5.358 67.347 5.639 67.619C5.923 67.878 6.329 68.305 6.868 68.754A37.5 37.5 0 0 0 11.442 72.088C13.376 73.303 15.686 74.508 18.215 75.59 20.745 76.67 23.505 77.582 26.311 78.307 29.122 79.02 31.98 79.541 34.717 79.803 36.507 79.975 38.229 80.043 39.85 80.037A38 38 0 0 0 34.202 82.738 40 40 0 0 0 29.285 86.107 33.5 33.5 0 0 0 25.401 89.744 26.5 26.5 0 0 0 22.965 92.855C22.425 93.689 22.153 94.228 22.153 94.228S22.756 94.259 23.746 94.207A26.4 26.4 0 0 0 27.658 93.645 33 33 0 0 0 32.746 92.086 40 40 0 0 0 38.114 89.5C41.627 87.49 44.789 84.881 46.919 82.504A27 27 0 0 0 48.395 80.729 42 42 0 0 1 48.881 84.309C48.959 85.315 49.03 86.395 49.005 87.467 49.006 88.547 48.907 89.617 48.747 90.613 48.694 91.121 48.534 91.576 48.44 92.033 48.337 92.49 48.15 92.881 48.024 93.271 47.895 93.66 47.678 93.962 47.536 94.263 47.395 94.57 47.214 94.794 47.063 94.982L46.594 95.584 47.168 95.08C47.356 94.918 47.587 94.723 47.787 94.443 47.988 94.168 48.278 93.886 48.485 93.515 48.689 93.146 48.968 92.759 49.165 92.312 49.352 91.863 49.614 91.398 49.768 90.888 50.135 89.88 50.456 88.773 50.668 87.652 50.908 86.531 51.051 85.396 51.168 84.33A42 42 0 0 0 51.377 80.424 27 27 0 0 0 53.082 82.504C55.211 84.881 58.373 87.492 61.887 89.5A40 40 0 0 0 67.254 92.086 33.4 33.4 0 0 0 72.342 93.645C73.899 93.985 75.266 94.147 76.254 94.207 77.244 94.26 77.848 94.228 77.848 94.228S77.577 93.689 77.037 92.855A26 26 0 0 0 74.599 89.744 33 33 0 0 0 70.716 86.107 40 40 0 0 0 65.8 82.738 38.3 38.3 0 0 0 60.15 80.037 52 52 0 0 0 65.283 79.803C68.021 79.541 70.879 79.02 73.689 78.307 76.496 77.582 79.255 76.67 81.785 75.59 84.312 74.508 86.625 73.303 88.558 72.088A37.6 37.6 0 0 0 93.132 68.754C93.671 68.305 94.077 67.878 94.362 67.619 94.643 67.348 94.788 67.181 94.788 67.181S94.582 67.102 94.205 66.997M50.049 78.684L49.867 78.709C49.912 78.695 49.967 78.68 50 78.668 50.012 78.674 50.036 78.68 50.049 78.684" fill="#ffffff" data-fill-palette-color="accent"></path></svg></g></svg></g></svg></g><defs></defs></svg><rect width="395.52" height="112.62365846562906" fill="none" stroke="none" visibility="hidden"></rect></g></svg></g></svg>