<svg xmlns="http://www.w3.org/2000/svg" version="1.1" xmlns:xlink="http://www.w3.org/1999/xlink" xmlns:svgjs="http://svgjs.dev/svgjs" width="1500" height="1500" viewBox="0 0 1500 1500"><rect width="1500" height="1500" fill="#000000"></rect><g transform="matrix(0.6666666666666666,0,0,0.6666666666666666,249.39393939393938,432.2837498545034)"><svg viewBox="0 0 396 251" data-background-color="#282634" preserveAspectRatio="xMidYMid meet" height="950" width="1500" xmlns="http://www.w3.org/2000/svg" xmlns:xlink="http://www.w3.org/1999/xlink"><g id="tight-bounds" transform="matrix(1,0,0,1,0.2400000000000091,0.4159665050310366)"><svg viewBox="0 0 395.52 250.16806698993793" height="250.16806698993793" width="395.52"><g><svg viewBox="0 0 395.52000000000004 250.16806698993796" height="250.16806698993793" width="395.52"><g transform="matrix(1,0,0,1,0,129.2586477510055)"><svg viewBox="0 0 395.52000000000004 120.90941923893246" height="120.90941923893246" width="395.52000000000004"><g id="textblocktransform"><svg viewBox="0 0 395.52000000000004 120.90941923893246" height="120.90941923893246" width="395.52000000000004" id="textblock"><g><svg viewBox="0 0 395.52000000000004 120.90941923893246" height="120.90941923893246" width="395.52000000000004"><g transform="matrix(1,0,0,1,0,0)"><svg width="395.52000000000004" viewBox="0.9978895607494526 -16.935523606500226 179.06634043925055 54.73773360650023" height="120.90941923893246" data-palette-color="#ff4057"><path d="M21.52-4.747l-6.716 17.12c-1.549 3.947-1.047 6.421 1.503 7.422v0c0.77 0.302 1.393 0.41 1.87 0.325v0l0.15 0.413c-0.586 0.178-1.369 0.075-2.35-0.309v0c-2.842-1.115-3.426-3.808-1.75-8.077v0l0.383-0.978c-1.676 1.297-3.603 2.303-5.781 3.017-2.18 0.72-4.113 1.093-5.8 1.119v0c-1.244-1.448-1.916-3.183-2.017-5.206-0.095-2.021 0.305-4.173 1.201-6.458 0.896-2.284 2.32-4.361 4.271-6.23 1.945-1.872 4.177-3.134 6.695-3.787v0c2.607 1.023 4.764 2.589 6.471 4.698v0l1.293-3.295c1.583-4.034 2.02-6.856 1.312-8.465v0c-0.337-0.784-0.915-1.491-1.735-2.121v0l0.268-0.41c1.83 1.269 2.639 2.958 2.428 5.066v0c-0.164 1.64-0.729 3.692-1.696 6.156zM13.119-5.84c-2.366 0.719-4.458 1.971-6.276 3.757-1.809 1.782-3.136 3.75-3.981 5.904-0.842 2.147-1.245 4.177-1.207 6.09 0.037 1.912 0.605 3.514 1.703 4.804v0c1.575 0.002 3.524-0.404 5.849-1.218 2.321-0.823 4.237-1.893 5.75-3.212v0l4.485-11.432c-1.695-2.14-3.803-3.705-6.323-4.693zM26.899 17.599v0l4.872-16.642 0.595 0.174-4.83 16.498c-0.296 1.011-0.496 1.776-0.599 2.294-0.103 0.519-0.117 1.077-0.042 1.676 0.073 0.605 0.317 1.076 0.732 1.412 0.415 0.337 1.029 0.624 1.842 0.863 0.806 0.236 1.443 0.291 1.911 0.163v0l0.186 0.398c-0.569 0.236-1.356 0.207-2.361-0.086v0c-1.651-0.483-2.597-1.226-2.838-2.228-0.235-1-0.058-2.507 0.532-4.522zM35.394-6.651v0c-0.081 0.275-0.245 0.494-0.494 0.657-0.247 0.157-0.525 0.19-0.832 0.101-0.301-0.088-0.513-0.265-0.637-0.531-0.122-0.272-0.143-0.545-0.062-0.82v0c0.197-0.672 0.631-0.909 1.303-0.713 0.678 0.199 0.919 0.634 0.722 1.306zM56.416 9.04v0l-2.71 13.102c-0.806 3.897-1.208 7.879-1.204 11.944v0c-0.546 0.765-1.491 1.53-2.833 2.294-1.349 0.763-2.513 1.237-3.491 1.422v0c-1.684-0.348-3.45-1.013-5.296-1.994-1.845-0.988-3.373-2.093-4.583-3.317v0c1.372-2.256 3.69-4.428 6.954-6.516v0c-2.937-2.786-3.995-6.16-3.175-10.123v0c0.496-2.396 1.536-4.676 3.12-6.84 1.59-2.156 3.437-3.765 5.543-4.828v0c2.899 0.6 5.351 1.791 7.358 3.575v0c0.479-1.528 1.267-2.75 2.362-3.668v0l0.373 0.323c-1.244 1.308-2.05 2.851-2.418 4.626zM48.871 4.742c-1.949 0.931-3.676 2.47-5.183 4.616-1.499 2.147-2.462 4.249-2.887 6.306v0c-0.864 4.178 0.139 7.507 3.009 9.987v0l1.887-1.121c1.271-0.779 2.3-1.427 3.088-1.945v0c2.143-1.408 3.855-2.923 5.136-4.544v0l2.014-9.734c-1.857-1.718-4.212-2.907-7.064-3.565zM53.099 22.017v0l0.62-2.997c-1.477 1.778-4.069 3.777-7.777 6v0c-1.675 1.022-2.851 1.755-3.528 2.2-0.678 0.445-1.555 1.149-2.633 2.111-1.078 0.968-1.972 1.978-2.679 3.03v0c2.759 2.559 5.79 4.179 9.094 4.863v0c0.886-0.205 1.929-0.639 3.128-1.303 1.193-0.665 2.05-1.319 2.571-1.96v0c0.029-4.222 0.43-8.203 1.204-11.944zM65.191 25.01v0l1.876-17.238 0.616 0.067-1.86 17.089c-0.114 1.047-0.176 1.835-0.186 2.364-0.011 0.529 0.073 1.081 0.252 1.657 0.178 0.583 0.501 1.003 0.969 1.262 0.468 0.259 1.123 0.434 1.965 0.526 0.835 0.091 1.472 0.033 1.91-0.174v0l0.252 0.359c-0.519 0.332-1.299 0.442-2.339 0.329v0c-1.71-0.186-2.772-0.751-3.185-1.695-0.407-0.943-0.497-2.458-0.27-4.546zM69.299-0.354v0c-0.031 0.285-0.155 0.53-0.371 0.734-0.216 0.198-0.483 0.279-0.802 0.245-0.311-0.034-0.551-0.171-0.719-0.41-0.168-0.246-0.236-0.512-0.205-0.797v0c0.076-0.696 0.462-1.006 1.157-0.931 0.703 0.076 1.016 0.463 0.94 1.159zM91.734 17.285l0.187 10.649c0.038 2.166 1.427 3.225 4.167 3.177v0c0.573-0.01 1.208-0.101 1.905-0.273v0l0.108 0.428c-0.569 0.23-1.334 0.353-2.294 0.37-0.953 0.017-1.847-0.174-2.681-0.573-0.834-0.399-1.338-1.01-1.512-1.834v0c-0.145 0.829-0.621 1.458-1.427 1.886-0.806 0.428-1.686 0.65-2.639 0.666-0.953 0.017-1.718-0.08-2.295-0.29v0l0.082-0.431c0.703 0.148 1.341 0.216 1.914 0.206v0c2.74-0.048 4.09-1.155 4.052-3.321v0l-0.227-12.948c-0.074-4.233-1.481-6.325-4.221-6.277v0c-0.827 0.015-1.444 0.152-1.853 0.412v0l-0.296-0.324c0.473-0.395 1.236-0.602 2.29-0.621v0c3.053-0.054 4.62 2.213 4.7 6.799v0l0.02 1.15c1.68-4.17 4.165-6.938 7.455-8.303v0c1.169 1.286 1.777 3.236 1.823 5.849v0c0.003 0.153 0.005 0.297 0.008 0.43v0l-0.62 0.011c-0.003-0.16-0.006-0.32-0.008-0.48v0c-0.04-2.26-0.517-3.972-1.431-5.136v0c-1.706 0.823-3.08 1.938-4.122 3.343-1.042 1.405-2.07 3.217-3.085 5.435zM117.209 29.944v0c-3.227 0.353-5.699-0.473-7.413-2.479-1.708-2.006-2.762-4.832-3.161-8.476v0c-0.474-4.334 0.401-8.196 2.627-11.584v0c0.99-0.33 2.009-0.552 3.056-0.666v0c3.261-0.357 5.723 0.327 7.386 2.049 1.658 1.73 2.682 4.381 3.073 7.953v0c0.544 4.97-0.297 9.15-2.522 12.538v0c-0.99 0.33-2.005 0.551-3.046 0.665zM117.292 29.412v0c0.921-0.101 1.799-0.294 2.632-0.579v0c2.014-3.231 2.761-7.223 2.242-11.975v0c-0.378-3.453-1.343-6-2.898-7.64-1.56-1.633-3.908-2.279-7.042-1.936v0c-0.915 0.1-1.789 0.29-2.624 0.568v0c-2.031 3.139-2.816 6.813-2.356 11.022v0c0.838 7.668 4.187 11.181 10.046 10.54zM143.261 3.699v0l3.162 13.289c0.981 4.125 2.805 5.87 5.471 5.236v0c0.804-0.191 1.378-0.458 1.722-0.801v0l0.358 0.254c-0.379 0.481-1.081 0.843-2.105 1.087v0c-2.97 0.707-4.986-1.171-6.049-5.633v0l-0.243-1.021c-0.636 2.022-1.644 3.948-3.025 5.777-1.379 1.836-2.754 3.246-4.123 4.229v0c-1.848-0.479-3.391-1.52-4.628-3.123-1.232-1.605-2.131-3.601-2.7-5.988-0.568-2.387-0.585-4.905-0.05-7.554 0.528-2.647 1.64-4.958 3.337-6.93v0c2.756-0.656 5.434-0.604 8.034 0.154v0c-0.213-1.587-0.015-3.029 0.595-4.325v0l0.474 0.134c-0.573 1.712-0.649 3.451-0.229 5.215zM134.644 2.994c-1.532 1.941-2.535 4.163-3.008 6.668-0.468 2.496-0.435 4.87 0.101 7.12 0.534 2.244 1.362 4.14 2.484 5.689 1.122 1.549 2.503 2.54 4.141 2.972v0c1.294-0.897 2.663-2.343 4.107-4.338 1.436-2 2.399-3.973 2.888-5.92v0l-2.842-11.946c-2.614-0.79-5.237-0.871-7.871-0.245zM165.578-9.009l6.418 17.234c1.48 3.973 3.503 5.482 6.071 4.525v0c0.775-0.289 1.312-0.624 1.61-1.005v0l0.387 0.208c-0.317 0.524-0.969 0.969-1.956 1.337v0c-2.861 1.066-5.092-0.551-6.693-4.849v0l-0.367-0.984c-0.383 2.085-1.148 4.12-2.294 6.104-1.144 1.991-2.335 3.559-3.573 4.703v0c-1.892-0.249-3.551-1.093-4.977-2.532-1.419-1.442-2.557-3.313-3.413-5.612-0.856-2.299-1.181-4.796-0.975-7.49 0.2-2.692 1.02-5.121 2.461-7.288v0c2.624-0.977 5.276-1.25 7.955-0.817v0l-1.236-3.318c-1.512-4.061-3.069-6.455-4.67-7.181v0c-0.774-0.359-1.676-0.5-2.707-0.422v0l-0.074-0.485c2.21-0.275 3.939 0.443 5.188 2.155v0c0.972 1.331 1.92 3.237 2.845 5.717zM158.59-4.219c-1.283 2.114-2.006 4.443-2.168 6.986-0.159 2.535 0.166 4.886 0.973 7.054 0.805 2.162 1.859 3.942 3.163 5.342 1.304 1.4 2.795 2.214 4.473 2.442v0c1.174-1.049 2.356-2.652 3.545-4.809 1.18-2.161 1.894-4.237 2.141-6.229v0l-4.286-11.508c-2.691-0.463-5.305-0.223-7.841 0.722z" opacity="1" transform="matrix(1,0,0,1,0,0)" fill="#ffffff" class="wordmark-text-0" data-fill-palette-color="primary" id="text-0"></path></svg></g></svg></g></svg></g></svg></g><g transform="matrix(1,0,0,1,137.4643161196149,0)"><svg viewBox="0 0 120.59136776077025 120.90941923893247" height="120.90941923893247" width="120.59136776077025"><g><svg xmlns="http://www.w3.org/2000/svg" xmlns:xlink="http://www.w3.org/1999/xlink" version="1.1" x="0" y="0" viewBox="5.212 5.094 89.578 89.81425584351389" enable-background="new 0 0 100 100" xml:space="preserve" height="120.90941923893247" width="120.59136776077025" class="icon-icon-0" data-fill-palette-color="accent" id="icon-0"><path d="M94.205 67.671C93.832 67.581 93.271 67.4 92.582 67.263 91.197 66.962 89.25 66.656 86.973 66.519 84.694 66.376 82.086 66.423 79.348 66.679 76.61 66.941 73.75 67.456 70.94 68.163 68.131 68.88 65.37 69.786 62.84 70.864 62.065 71.194 61.32 71.54 60.59 71.889 61.049 71.498 61.508 71.11 61.973 70.694 63.219 69.559 64.51 68.352 65.776 67.049 68.323 64.449 70.823 61.516 73.149 58.449 75.461 55.375 77.608 52.172 79.417 49.015 81.22 45.856 82.729 42.775 83.858 40.009 84.995 37.249 85.762 34.814 86.223 33.051 86.467 32.178 86.592 31.444 86.707 30.965 86.809 30.477 86.844 30.202 86.844 30.202S86.588 30.311 86.147 30.542C85.715 30.782 85.043 31.102 84.268 31.571 82.698 32.492 80.563 33.893 78.213 35.734 75.856 37.569 73.299 39.857 70.746 42.45 68.197 45.045 65.697 47.977 63.363 51.038 61.041 54.107 58.892 57.309 57.084 60.463A78 78 0 0 0 54.99 64.36 95 95 0 0 0 56.445 55.81C56.99 51.462 57.25 46.825 57.254 42.188 57.238 37.551 56.975 32.915 56.426 28.567A94 94 0 0 0 54.184 16.685C53.286 13.206 52.274 10.309 51.45 8.28 50.635 6.253 50 5.094 50 5.094S49.364 6.253 48.55 8.282C47.727 10.311 46.715 13.208 45.815 16.687A94 94 0 0 0 43.575 28.569C43.025 32.917 42.762 37.553 42.748 42.19 42.751 46.827 43.011 51.464 43.557 55.812A94 94 0 0 0 45.012 64.364 79 79 0 0 0 42.918 60.465C41.107 57.311 38.959 54.11 36.638 51.04 34.305 47.979 31.804 45.046 29.254 42.452 26.702 39.859 24.146 37.572 21.789 35.736 19.439 33.895 17.305 32.494 15.732 31.573 14.958 31.104 14.284 30.784 13.854 30.544 13.412 30.314 13.157 30.204 13.157 30.204S13.193 30.479 13.295 30.967C13.409 31.446 13.534 32.181 13.776 33.053 14.238 34.816 15.007 37.25 16.143 40.011 17.272 42.777 18.782 45.858 20.585 49.017 22.393 52.174 24.539 55.377 26.853 58.451 29.179 61.517 31.677 64.451 34.224 67.051 35.49 68.354 36.783 69.561 38.027 70.696 38.494 71.112 38.953 71.501 39.412 71.891A56 56 0 0 0 37.162 70.866C34.632 69.788 31.871 68.882 29.062 68.165 26.25 67.458 23.39 66.942 20.653 66.681 17.913 66.425 15.308 66.378 13.028 66.521 10.751 66.658 8.803 66.964 7.418 67.265 6.73 67.402 6.169 67.583 5.795 67.673 5.418 67.777 5.212 67.853 5.212 67.853S5.357 68.019 5.638 68.292C5.923 68.55 6.328 68.976 6.869 69.425 7.941 70.351 9.505 71.552 11.441 72.759 13.375 73.974 15.686 75.179 18.216 76.263 20.744 77.341 23.503 78.253 26.311 78.978 29.121 79.691 31.98 80.212 34.716 80.474 36.507 80.646 38.229 80.716 39.852 80.708A38.5 38.5 0 0 0 34.2 83.409 40 40 0 0 0 29.285 86.78 33 33 0 0 0 25.4 90.415 26 26 0 0 0 22.965 93.528C22.425 94.36 22.153 94.899 22.153 94.899S22.757 94.93 23.748 94.876A26 26 0 0 0 27.659 94.315 33 33 0 0 0 32.746 92.756 40 40 0 0 0 38.115 90.17C41.627 88.16 44.79 85.551 46.921 83.174A26 26 0 0 0 49.353 80.057C49.508 79.815 49.636 79.608 49.748 79.42 49.85 79.391 49.937 79.363 50.002 79.344 50.066 79.364 50.154 79.391 50.256 79.42 50.367 79.608 50.494 79.815 50.65 80.057A26 26 0 0 0 53.084 83.174C55.213 85.551 58.375 88.162 61.889 90.17A40 40 0 0 0 67.256 92.756 33.4 33.4 0 0 0 72.344 94.315 26 26 0 0 0 76.256 94.876C77.246 94.931 77.85 94.899 77.85 94.899S77.579 94.36 77.039 93.528A26 26 0 0 0 74.601 90.415 33 33 0 0 0 70.718 86.78 40 40 0 0 0 65.802 83.409 38.5 38.5 0 0 0 60.152 80.708 51 51 0 0 0 65.285 80.474C68.023 80.212 70.881 79.691 73.691 78.978 76.498 78.253 79.257 77.341 81.787 76.263 84.314 75.179 86.627 73.974 88.56 72.759A37.6 37.6 0 0 0 93.134 69.425C93.673 68.976 94.079 68.55 94.364 68.292 94.645 68.019 94.79 67.853 94.79 67.853S94.582 67.774 94.205 67.671" fill="#ffffff" data-fill-palette-color="accent"></path></svg></g></svg></g><g></g></svg></g><defs></defs></svg><rect width="395.52" height="250.16806698993793" fill="none" stroke="none" visibility="hidden"></rect></g></svg></g></svg>